<svg width="79" height="79" viewBox="0 0 79 79" fill="none" xmlns="http://www.w3.org/2000/svg">
<path d="M39.4043 78.8086C44.8079 78.8086 49.8861 77.7832 54.6387 75.7324C59.3913 73.6816 63.5824 70.8333 67.212 67.1875C70.8415 63.5416 73.6898 59.3424 75.7569 54.5898C77.8239 49.8372 78.8575 44.7754 78.8575 39.4043C78.8575 34.0332 77.8239 28.9714 75.7569 24.2187C73.6898 19.4661 70.8333 15.2669 67.1875 11.6211C63.5417 7.97523 59.3425 5.12694 54.5899 3.0762C49.8373 1.0254 44.7591 0 39.3555 0C33.9844 0 28.9226 1.0254 24.17 3.0762C19.4174 5.12694 15.2344 7.97523 11.6211 11.6211C8.00779 15.2669 5.16763 19.4661 3.10058 24.2187C1.03353 28.9714 0 34.0332 0 39.4043C0 44.7754 1.03353 49.8372 3.10058 54.5898C5.16763 59.3424 8.01593 63.5416 11.6455 67.1875C15.2751 70.8333 19.4662 73.6816 24.2188 75.7324C28.9714 77.7832 34.0332 78.8086 39.4043 78.8086ZM35.1075 58.252C34.3587 58.252 33.667 58.0811 33.0323 57.7393C32.3975 57.3975 31.7871 56.8522 31.2012 56.1035L22.1192 44.7266C21.4356 43.8477 21.0938 42.9036 21.0938 41.8945C21.0938 40.918 21.4274 40.0716 22.0948 39.3555C22.762 38.6393 23.6002 38.2812 24.6094 38.2812C25.2278 38.2812 25.7975 38.4114 26.3184 38.6719C26.8392 38.9323 27.36 39.4206 27.8809 40.1367L34.9121 49.5605L50.4883 24.3164C51.3021 22.9817 52.3437 22.3144 53.6133 22.3144C54.5573 22.3144 55.4118 22.6074 56.1768 23.1934C56.9418 23.7793 57.3243 24.5931 57.3243 25.6348C57.3243 26.1231 57.2022 26.6195 56.958 27.124C56.7138 27.6286 56.4616 28.1087 56.2012 28.5644L38.7696 56.1035C37.8906 57.5358 36.6699 58.252 35.1075 58.252Z" fill="#00CC5E"/>
</svg>
