<svg width="23" height="23" viewBox="0 0 23 23" fill="none" xmlns="http://www.w3.org/2000/svg">
<path d="M21.3471 0H1.63695C0.733807 0 0 0.732444 0 1.63158V20.9984C0 21.8976 0.733807 22.63 1.63695 22.63H21.3471C22.2503 22.63 22.9892 21.8976 22.9892 20.9984V1.63158C22.9892 0.732444 22.2503 0 21.3471 0ZM6.94808 19.3971H3.54075V8.59738H6.95321V19.3971H6.94808ZM5.24441 7.12239C4.1514 7.12239 3.26878 6.24851 3.26878 5.17762C3.26878 4.10674 4.1514 3.23286 5.24441 3.23286C6.3323 3.23286 7.22005 4.10674 7.22005 5.17762C7.22005 6.25356 6.33743 7.12239 5.24441 7.12239V7.12239ZM19.7204 19.3971H16.3131V14.1437C16.3131 12.891 16.2874 11.2796 14.5427 11.2796C12.7672 11.2796 12.4953 12.6435 12.4953 14.0528V19.3971H9.08792V8.59738H12.3567V10.0724H12.4029C12.8596 9.22374 13.9731 8.32966 15.6306 8.32966C19.079 8.32966 19.7204 10.5674 19.7204 13.477V19.3971V19.3971Z" fill="#B6BFCB"/>
</svg>
