<svg width="17" height="16" viewBox="0 0 17 16" fill="none" xmlns="http://www.w3.org/2000/svg">
<path d="M4.88564 16C5.09976 16 5.29441 15.9432 5.46958 15.8297C5.64477 15.7161 5.86537 15.5393 6.13138 15.2993L8.73966 12.9635H13.3139C14.1119 12.9635 14.7818 12.8224 15.3236 12.5401C15.8654 12.2579 16.2741 11.8459 16.5499 11.3041C16.8256 10.7624 16.9635 10.0989 16.9635 9.31386V3.64964C16.9635 2.86457 16.8256 2.20114 16.5499 1.65937C16.2741 1.11761 15.8654 0.705602 15.3236 0.423353C14.7818 0.141118 14.1119 0 13.3139 0H3.64964C2.85158 0 2.18167 0.141118 1.63991 0.423353C1.09814 0.705602 0.689373 1.11761 0.413622 1.65937C0.137874 2.20114 0 2.86457 0 3.64964V9.31386C0 10.0989 0.137874 10.7624 0.413622 11.3041C0.689373 11.8459 1.09814 12.2579 1.63991 12.5401C2.18167 12.8224 2.85158 12.9635 3.64964 12.9635H3.93188V14.9002C3.93188 15.2376 4.0146 15.5053 4.18005 15.7032C4.3455 15.9011 4.58069 16 4.88564 16ZM5.24575 14.4039V12.2141C5.24575 11.9741 5.19546 11.8054 5.09488 11.708C4.99432 11.6107 4.82725 11.562 4.59367 11.562H3.64964C2.86457 11.562 2.2936 11.3739 1.93674 10.9976C1.57989 10.6213 1.40147 10.06 1.40147 9.31386V3.64964C1.40147 2.90349 1.57989 2.34387 1.93674 1.9708C2.2936 1.59773 2.86457 1.4112 3.64964 1.4112H13.3139C14.0989 1.4112 14.6699 1.59773 15.0268 1.9708C15.3836 2.34387 15.562 2.90349 15.562 3.64964V9.31386C15.562 10.06 15.3836 10.6213 15.0268 10.9976C14.6699 11.3739 14.0989 11.562 13.3139 11.562H8.66181C8.42822 11.562 8.23844 11.5864 8.09245 11.635C7.94647 11.6837 7.79562 11.7924 7.6399 11.9611L5.24575 14.4039Z" fill="white"/>
</svg>
