<svg width="13" height="16" viewBox="0 0 13 16" fill="none" xmlns="http://www.w3.org/2000/svg">
<path d="M3.56821 4.5077H9.08185C9.22736 4.5077 9.34915 4.45709 9.44721 4.35587C9.54528 4.25464 9.59432 4.13127 9.59432 3.98576C9.59432 3.84658 9.54528 3.72795 9.44721 3.62988C9.34915 3.53183 9.22736 3.4828 9.08185 3.4828H3.56821C3.41637 3.4828 3.29142 3.53183 3.19336 3.62988C3.0953 3.72795 3.04627 3.84658 3.04627 3.98576C3.04627 4.13127 3.0953 4.25464 3.19336 4.35587C3.29142 4.45709 3.41637 4.5077 3.56821 4.5077ZM3.56821 7.09845H9.08185C9.22736 7.09845 9.34915 7.04784 9.44721 6.94662C9.54528 6.84539 9.59432 6.71885 9.59432 6.56701C9.59432 6.42783 9.54528 6.30921 9.44721 6.21115C9.34915 6.11309 9.22736 6.06406 9.08185 6.06406H3.56821C3.41637 6.06406 3.29142 6.11309 3.19336 6.21115C3.0953 6.30921 3.04627 6.42783 3.04627 6.56701C3.04627 6.71885 3.0953 6.84539 3.19336 6.94662C3.29142 7.04784 3.41637 7.09845 3.56821 7.09845ZM3.56821 9.67972H6.14946C6.29498 9.67972 6.41677 9.63068 6.51482 9.53261C6.61289 9.43456 6.66193 9.31594 6.66193 9.17675C6.66193 9.03123 6.61289 8.90786 6.51482 8.80664C6.41677 8.70541 6.29498 8.6548 6.14946 8.6548H3.56821C3.41637 8.6548 3.29142 8.70541 3.19336 8.80664C3.0953 8.90786 3.04627 9.03123 3.04627 9.17675C3.04627 9.31594 3.0953 9.43456 3.19336 9.53261C3.29142 9.63068 3.41637 9.67972 3.56821 9.67972ZM0 13.5801C0 14.3899 0.197708 14.9957 0.593124 15.3974C0.98853 15.7991 1.58481 16 2.38197 16H10.2491C11.0463 16 11.6441 15.7991 12.0427 15.3974C12.4413 14.9957 12.6406 14.3899 12.6406 13.5801V2.41993C12.6406 1.61645 12.4413 1.01226 12.0427 0.607355C11.6441 0.202452 11.0463 0 10.2491 0H2.38197C1.58481 0 0.98853 0.202452 0.593124 0.607355C0.197708 1.01226 0 1.61645 0 2.41993V13.5801ZM1.36655 13.5611V2.4389C1.36655 2.09727 1.45829 1.83314 1.64176 1.64651C1.82523 1.45986 2.09727 1.36654 2.45789 1.36654H10.1827C10.537 1.36654 10.8059 1.45986 10.9893 1.64651C11.1728 1.83314 11.2645 2.09727 11.2645 2.4389V13.5611C11.2645 13.9027 11.1728 14.1669 10.9893 14.3535C10.8059 14.5401 10.537 14.6335 10.1827 14.6335H2.45789C2.09727 14.6335 1.82523 14.5401 1.64176 14.3535C1.45829 14.1669 1.36655 13.9027 1.36655 13.5611Z" fill="black"/>
</svg>
